<svg width="60" height="47" viewBox="0 0 60 47" fill="none" xmlns="http://www.w3.org/2000/svg">
<path d="M6.58861 19.5571H3.80012C3.32266 19.5571 2.86477 19.7506 2.52712 20.0952C2.18958 20.4398 1.99988 20.9071 1.99988 21.3942V28.763C1.99988 29.2502 2.18958 29.7175 2.52712 30.062C2.86477 30.4065 3.32266 30.6001 3.80012 30.6001H6.58861" stroke="#B00000" strokeWidth="3.11405" strokeLinecap="round"/>
<path d="M54.2335 19.5571H56.1984C56.6759 19.5571 57.1338 19.7506 57.4714 20.0952C57.809 20.4398 57.9987 20.9071 57.9987 21.3942V28.763C57.9987 29.2502 57.809 29.7175 57.4714 30.062C57.1338 30.4065 56.6759 30.6001 56.1984 30.6001H53.41" stroke="#B00000" strokeWidth="3.11405" strokeLinecap="round"/>
<path d="M40.4351 42.9971H44.0941C48.2252 40.1417 51.2927 36.1067 52.8508 31.478C54.4089 26.8493 54.3764 21.8681 52.7582 17.2581C51.14 12.6482 48.0202 8.64963 43.8522 5.84342C39.6842 3.03712 34.6851 1.56937 29.5811 1.65344C24.4773 1.73742 19.5344 3.36886 15.4708 6.31063C11.4072 9.2524 8.43441 13.3513 6.98456 18.0118C5.53461 22.6722 5.68306 27.6514 7.40823 32.2261C9.13349 36.8008 12.3455 40.7325 16.5779 43.45" stroke="#B00000" strokeWidth="3" strokeLinecap="round"/>
<path d="M37.5829 45.1837H27.9115C27.4052 45.1816 26.9204 44.9858 26.5623 44.639C26.2044 44.2923 26.0023 43.8226 26.0001 43.3322V43.0907C26.0026 42.6004 26.2047 42.1308 26.5626 41.7842C26.9206 41.4374 27.4053 41.2416 27.9115 41.2393H37.5829C38.0892 41.2413 38.5741 41.4371 38.9321 41.7839C39.2901 42.1306 39.4921 42.6003 39.4944 43.0907V43.3322C39.4923 43.8227 39.2904 44.2926 38.9324 44.6393C38.5744 44.9862 38.0893 45.1819 37.5829 45.1837Z" stroke="#B00000" strokeWidth="3" strokeLinecap="round"/>
<path d="M15.1866 29.0692H21.4311V27.6361H17.7528V27.5794L19.0317 26.3932C20.8324 24.8387 21.3157 24.0614 21.3157 23.1182C21.3157 21.681 20.0753 20.6649 18.1977 20.6649C16.3585 20.6649 15.0967 21.7054 15.101 23.3328H16.8588C16.8546 22.5393 17.385 22.0535 18.1848 22.0535C18.9547 22.0535 19.5278 22.5069 19.5278 23.2356C19.5278 23.8955 19.1001 24.3489 18.3046 25.0735L15.1866 27.8062V29.0692ZM22.4523 27.6118H26.6568V29.0692H28.4275V27.6118H29.5139V26.207H28.4275V20.7782H26.1093L22.4523 26.2313V27.6118ZM26.691 26.207H24.3172V26.1422L26.6226 22.6891H26.691V26.207ZM36.1242 27.9195L37.2491 26.8547L35.2559 24.9723L37.2491 23.0899L36.1242 22.017L34.1311 23.9036L32.1336 22.017L31.0131 23.0899L33.0019 24.9723L31.0131 26.8547L32.1336 27.9195L34.1311 26.033L36.1242 27.9195ZM39.2808 29.0692H41.1926L44.8283 22.2317V20.7782H38.682V22.2114H42.9121V22.268L39.2808 29.0692Z" fill="#B00000"/>
</svg>
