<svg width="62" height="62" viewBox="0 0 62 62" fill="none" xmlns="http://www.w3.org/2000/svg">
<path d="M17.2998 5.88684C23.5845 2.54974 30.8769 1.63984 37.789 3.33014C44.7011 5.02054 50.7504 9.19334 54.7858 15.0542C58.8211 20.9151 60.5608 28.0552 59.6736 35.1155C58.7865 42.1757 55.3345 48.6634 49.9747 53.3439C44.6148 58.0243 37.7212 60.5707 30.6057 60.4985C23.4903 60.4263 16.6497 57.7406 11.3859 52.9524C6.12212 48.1642 2.80242 41.6078 2.05872 34.531C1.31502 27.4541 3.19922 20.3509 7.35262 14.573" stroke="#B00000" strokeWidth="3" strokeLinecap="round" strokeLinejoin="round"/>
<path d="M15.8775 6.1659L17.822 1.9624" stroke="#B00000" strokeWidth="2" strokeLinecap="round" strokeLinejoin="round"/>
<path d="M15.876 5.87402L19.9885 7.53022" stroke="#B00000" strokeWidth="2" strokeLinecap="round" strokeLinejoin="round"/>
<path d="M30.8998 54.1268C43.3963 54.1268 53.5267 43.9964 53.5267 31.4999C53.5267 19.0035 43.3963 8.87305 30.8998 8.87305C18.4033 8.87305 8.27289 19.0035 8.27289 31.4999C8.27289 43.9964 18.4033 54.1268 30.8998 54.1268Z" stroke="#B00000" strokeWidth="3"/>
<path d="M32.1698 13.722C32.1698 13.0207 31.6013 12.4521 30.9 12.4521C30.1986 12.4521 29.6301 13.0207 29.6301 13.722V15.4151C29.6301 16.1164 30.1987 16.6849 30.9 16.6849C31.6013 16.6849 32.1698 16.1164 32.1698 15.4151V13.722Z" fill="#B00000"/>
<path d="M32.1703 47.5843C32.1703 46.883 31.6018 46.3145 30.9004 46.3145C30.1991 46.3145 29.6306 46.883 29.6306 47.5843V49.2774C29.6306 49.9787 30.1991 50.5472 30.9005 50.5472C31.6018 50.5472 32.1703 49.9787 32.1703 49.2774V47.5843Z" fill="#B00000"/>
<path d="M49.9473 31.4998V31.4998C49.9473 30.7985 49.3788 30.23 48.6775 30.23H46.9844C46.2831 30.23 45.7145 30.7985 45.7145 31.4998V31.4998C45.7145 32.2011 46.2831 32.7696 46.9844 32.7696H48.6775C49.3788 32.7696 49.9473 32.2011 49.9473 31.4998Z" fill="#B00000"/>
<path d="M16.0852 31.4998V31.4998C16.0852 30.7985 15.5167 30.23 14.8154 30.23H13.1223C12.4209 30.23 11.8524 30.7985 11.8524 31.4998V31.4998C11.8524 32.2011 12.4209 32.7696 13.1223 32.7696H14.8154C15.5167 32.7696 16.0852 32.2011 16.0852 31.4998Z" fill="#B00000"/>
<path d="M24.3008 31.6328L28.9813 36.1822L38.6997 26.7361" stroke="#B00000" strokeWidth="3" strokeLinecap="round" strokeLinejoin="round"/>
</svg>
