<svg width="58" height="55" viewBox="0 0 58 55" fill="none" xmlns="http://www.w3.org/2000/svg">
<path d="M22.2421 52.601C22.4618 52.6965 22.6987 52.7459 22.9383 52.7462C23.65 52.7445 24.2908 52.3139 24.5607 51.6554L25.9847 48.2142C27.7171 48.4509 29.4738 48.4484 31.2055 48.2068L32.6355 51.6512C32.8114 52.0842 33.1532 52.4289 33.5848 52.6084C34.0164 52.7878 34.5018 52.7872 34.9329 52.6066L40.8852 50.1387C41.3247 49.9582 41.6732 49.6085 41.8522 49.1683C42.0276 48.743 42.0232 48.2648 41.8401 47.8427L40.4162 44.3932C41.8097 43.3378 43.0523 42.0967 44.1092 40.7044L47.5384 42.1237C47.9706 42.3105 48.4598 42.3156 48.8958 42.1378C49.3317 41.96 49.6779 41.6143 49.8562 41.1785L52.3275 35.2187C52.5054 34.789 52.5066 34.3065 52.3307 33.876C52.1552 33.4408 51.811 33.0951 51.3766 32.9177L48.9353 31.9013L9.1578 31.5386L5.7918 32.926C4.909 33.3052 4.4975 34.3257 4.8704 35.2112L7.3316 41.1821C7.5108 41.6104 7.8524 41.9502 8.2815 42.1273C8.7109 42.3085 9.1952 42.3093 9.6252 42.1296L13.0775 40.7038C14.1363 42.0971 15.3791 43.3403 16.7719 44.3996L15.3565 47.8212C15.1665 48.2487 15.1588 48.735 15.3352 49.1682C15.5138 49.6072 15.861 49.9563 16.299 50.1371L22.2421 52.601Z" stroke="#B00000" strokeWidth="3"/>
<path d="M48.0717 32.2471H48.0709H12.449C6.4573 32.2471 1.6001 27.3898 1.6001 21.3981C1.6001 15.4064 6.4573 10.5492 12.449 10.5492C12.5246 10.5492 12.5921 10.5497 12.6551 10.5511L13.6617 10.574L14.0642 9.6512C16.0909 5.0042 20.6788 2 25.7485 2C30.8183 2 35.4061 5.0042 37.4329 9.6512L37.816 10.5295L38.774 10.5511C42.4846 10.6348 45.802 12.885 47.2518 16.3017L47.6141 17.1557L48.54 17.213C52.5982 17.4638 55.723 20.8932 55.5964 24.9571C55.4698 29.021 52.1376 32.2493 48.0717 32.2471Z" stroke="#B00000" strokeWidth="3"/>
<path d="M28.5962 42.5468H28.5982C34.5981 42.523 39.9701 38.824 42.1327 33.2274C42.2899 32.8261 42.2198 32.3713 41.949 32.0359C41.6781 31.7004 41.248 31.5361 40.8224 31.6055C40.3971 31.6748 40.0417 31.9668 39.8912 32.3705C38.1029 37.0534 33.6101 40.1471 28.5972 40.1471C23.5843 40.1471 19.0915 37.0534 17.3032 32.3704C17.1527 31.9668 16.7973 31.6748 16.372 31.6055C15.9464 31.5361 15.5163 31.7004 15.2454 32.0359C14.9746 32.3713 14.9045 32.8261 15.0617 33.2273C17.2243 38.824 22.5963 42.523 28.5962 42.5468Z" fill="#B00000" stroke="#B00000" strokeWidth="0.5"/>
</svg>
